<svg width="247" height="153" viewBox="0 0 247 153" fill="none" xmlns="http://www.w3.org/2000/svg">
<path d="M120.549 93.907C123.201 93.907 125.854 93.907 128.586 93.907C128.586 94.7924 128.586 95.6778 128.586 96.59C129.47 96.59 130.354 96.59 131.265 96.59C131.265 97.4754 131.265 98.3609 131.265 99.2731C132.149 99.2731 133.033 99.2731 133.944 99.2731C133.944 108.127 133.944 116.981 133.944 126.104C133.06 126.104 132.176 126.104 131.265 126.104C131.265 130.531 131.265 134.958 131.265 139.519C130.381 139.519 129.497 139.519 128.586 139.519C128.586 142.175 128.586 144.831 128.586 147.568C127.702 147.568 126.818 147.568 125.907 147.568C125.907 148.453 125.907 149.339 125.907 150.251C123.255 150.251 120.603 150.251 117.871 150.251C117.871 151.137 117.871 152.022 117.871 152.934C108.146 152.934 98.422 152.934 88.403 152.934C88.403 152.049 88.403 151.163 88.403 150.251C87.519 150.251 86.6349 150.251 85.7241 150.251C85.7241 146.709 85.7241 143.168 85.7241 139.519C86.6081 139.519 87.4922 139.519 88.403 139.519C88.403 138.634 88.403 137.748 88.403 136.836C89.287 136.836 90.171 136.836 91.0819 136.836C91.0819 135.95 91.0819 135.065 91.0819 134.153C97.27 134.153 103.458 134.153 109.834 134.153C109.834 133.267 109.834 132.382 109.834 131.47C110.718 131.47 111.602 131.47 112.513 131.47C112.513 126.157 112.513 120.845 112.513 115.371C113.397 115.371 114.281 115.371 115.192 115.371C115.192 110.059 115.192 104.747 115.192 99.2731C116.076 99.2731 116.96 99.2731 117.871 99.2731C117.871 98.3877 117.871 97.5023 117.871 96.59C118.755 96.59 119.639 96.59 120.549 96.59C120.549 95.7046 120.549 94.8192 120.549 93.907Z" fill="#131311"/>
<path d="M182.163 93.907C185.699 93.907 189.236 93.907 192.879 93.907C192.879 94.7924 192.879 95.6778 192.879 96.59C193.763 96.59 194.647 96.59 195.558 96.59C195.558 110.757 195.558 124.923 195.558 139.519C194.674 139.519 193.79 139.519 192.879 139.519C192.879 141.29 192.879 143.061 192.879 144.885C191.995 144.885 191.111 144.885 190.2 144.885C190.2 145.77 190.2 146.656 190.2 147.568C188.432 147.568 186.664 147.568 184.842 147.568C184.842 148.453 184.842 149.339 184.842 150.251C175.118 150.251 165.394 150.251 155.375 150.251C155.375 149.366 155.375 148.48 155.375 147.568C154.491 147.568 153.607 147.568 152.696 147.568C152.696 144.026 152.696 140.485 152.696 136.836C153.58 136.836 154.464 136.836 155.375 136.836C155.375 135.95 155.375 135.065 155.375 134.153C156.259 134.153 157.143 134.153 158.054 134.153C158.054 133.267 158.054 132.382 158.054 131.47C163.358 131.47 168.662 131.47 174.127 131.47C174.127 130.584 174.127 129.699 174.127 128.787C175.011 128.787 175.895 128.787 176.806 128.787C176.806 119.047 176.806 109.308 176.806 99.2731C177.69 99.2731 178.574 99.2731 179.484 99.2731C179.484 98.3877 179.484 97.5023 179.484 96.59C180.369 96.59 181.253 96.59 182.163 96.59C182.163 95.7046 182.163 94.8192 182.163 93.907Z" fill="#131311"/>
<path d="M58.9352 85.8577C61.5872 85.8577 64.2393 85.8577 66.9718 85.8577C66.9718 86.7431 66.9718 87.6285 66.9718 88.5407C67.8558 88.5407 68.7398 88.5407 69.6506 88.5407C69.6506 89.4261 69.6506 90.3115 69.6506 91.2238C70.5347 91.2238 71.4187 91.2238 72.3295 91.2238C72.3295 104.505 72.3295 117.786 72.3295 131.47C71.4455 131.47 70.5615 131.47 69.6506 131.47C69.6506 132.355 69.6506 133.24 69.6506 134.153C67.8826 134.153 66.1145 134.153 64.2929 134.153C64.2929 135.038 64.2929 135.923 64.2929 136.836C63.4089 136.836 62.5248 136.836 61.614 136.836C61.614 137.721 61.614 138.607 61.614 139.519C60.73 139.519 59.846 139.519 58.9352 139.519C58.9352 140.404 58.9352 141.29 58.9352 142.202C50.9789 142.202 43.0227 142.202 34.8254 142.202C34.8254 141.316 34.8254 140.431 34.8254 139.519C33.9413 139.519 33.0573 139.519 32.1465 139.519C32.1465 135.977 32.1465 132.435 32.1465 128.787C33.0305 128.787 33.9145 128.787 34.8254 128.787C34.8254 127.901 34.8254 127.016 34.8254 126.103C35.7094 126.103 36.5934 126.103 37.5042 126.103C37.5042 125.218 37.5042 124.333 37.5042 123.42C41.0403 123.42 44.5764 123.42 48.2197 123.42C48.2197 122.535 48.2197 121.65 48.2197 120.737C49.1037 120.737 49.9877 120.737 50.8986 120.737C50.8986 119.852 50.8986 118.967 50.8986 118.054C51.7826 118.054 52.6666 118.054 53.5774 118.054C53.5774 109.2 53.5774 100.346 53.5774 91.2238C54.4615 91.2238 55.3455 91.2238 56.2563 91.2238C56.2563 90.3384 56.2563 89.453 56.2563 88.5407C57.1403 88.5407 58.0243 88.5407 58.9352 88.5407C58.9352 87.6553 58.9352 86.7699 58.9352 85.8577Z" fill="#131311"/>
<path d="M233.062 96.5901C235.714 96.5901 238.366 96.5901 241.098 96.5901C241.098 97.4755 241.098 98.3609 241.098 99.2731C241.982 99.2731 242.866 99.2731 243.777 99.2731C243.777 100.159 243.777 101.044 243.777 101.956C244.661 101.956 245.545 101.956 246.456 101.956C246.456 105.498 246.456 109.039 246.456 112.688C245.572 112.688 244.688 112.688 243.777 112.688C243.777 113.574 243.777 114.459 243.777 115.371C240.241 115.371 236.705 115.371 233.062 115.371C233.062 114.486 233.062 113.601 233.062 112.688C232.178 112.688 231.294 112.688 230.383 112.688C230.383 111.803 230.383 110.918 230.383 110.005C229.499 110.005 228.615 110.005 227.704 110.005C227.704 107.349 227.704 104.693 227.704 101.956C228.588 101.956 229.472 101.956 230.383 101.956C230.383 101.071 230.383 100.185 230.383 99.2731C231.267 99.2731 232.151 99.2731 233.062 99.2731C233.062 98.3877 233.062 97.5023 233.062 96.5901Z" fill="#131311"/>
<path d="M5.35774 88.5408C8.00982 88.5408 10.6619 88.5408 13.3943 88.5408C13.3943 89.4262 13.3943 90.3116 13.3943 91.2238C14.2784 91.2238 15.1624 91.2238 16.0732 91.2238C16.0732 92.1092 16.0732 92.9946 16.0732 93.9069C16.9572 93.9069 17.8413 93.9069 18.7521 93.9069C18.7521 97.4485 18.7521 100.99 18.7521 104.639C17.868 104.639 16.984 104.639 16.0732 104.639C16.0732 105.525 16.0732 106.41 16.0732 107.322C12.5371 107.322 9.001 107.322 5.35774 107.322C5.35774 106.437 5.35774 105.551 5.35774 104.639C4.47371 104.639 3.58968 104.639 2.67887 104.639C2.67887 103.754 2.67887 102.868 2.67887 101.956C1.79484 101.956 0.910815 101.956 0 101.956C0 99.2998 0 96.6436 0 93.9069C0.884026 93.9069 1.76805 93.9069 2.67887 93.9069C2.67887 93.0215 2.67887 92.1361 2.67887 91.2238C3.56289 91.2238 4.44692 91.2238 5.35774 91.2238C5.35774 90.3384 5.35774 89.453 5.35774 88.5408Z" fill="#131311"/>
<path d="M56.2567 10.7322C58.9087 10.7322 61.5608 10.7322 64.2933 10.7322C64.2933 11.6176 64.2933 12.503 64.2933 13.4152C65.1773 13.4152 66.0613 13.4152 66.9721 13.4152C66.9721 14.3006 66.9721 15.186 66.9721 16.0983C67.8562 16.0983 68.7402 16.0983 69.651 16.0983C69.651 19.6399 69.651 23.1816 69.651 26.8305C68.767 26.8305 67.8829 26.8305 66.9721 26.8305C66.9721 27.7159 66.9721 28.6013 66.9721 29.5136C63.436 29.5136 59.8999 29.5136 56.2567 29.5136C56.2567 28.6282 56.2567 27.7427 56.2567 26.8305C55.3726 26.8305 54.4886 26.8305 53.5778 26.8305C53.5778 25.9451 53.5778 25.0597 53.5778 24.1475C52.6938 24.1475 51.8097 24.1475 50.8989 24.1475C50.8989 21.4912 50.8989 18.835 50.8989 16.0983C51.783 16.0983 52.667 16.0983 53.5778 16.0983C53.5778 15.2129 53.5778 14.3275 53.5778 13.4152C54.4618 13.4152 55.3458 13.4152 56.2567 13.4152C56.2567 12.5298 56.2567 11.6444 56.2567 10.7322Z" fill="#131311"/>
<path d="M182.163 0C184.815 0 187.468 0 190.2 0C190.2 0.885408 190.2 1.77082 190.2 2.68305C191.084 2.68305 191.968 2.68305 192.879 2.68305C192.879 3.56846 192.879 4.45387 192.879 5.36611C193.763 5.36611 194.647 5.36611 195.558 5.36611C195.558 8.90774 195.558 12.4494 195.558 16.0983C194.674 16.0983 193.79 16.0983 192.879 16.0983C192.879 16.9837 192.879 17.8691 192.879 18.7814C189.343 18.7814 185.807 18.7814 182.163 18.7814C182.163 17.896 182.163 17.0106 182.163 16.0983C181.279 16.0983 180.395 16.0983 179.485 16.0983C179.485 15.2129 179.485 14.3275 179.485 13.4153C178.601 13.4153 177.716 13.4153 176.806 13.4153C176.806 10.759 176.806 8.10283 176.806 5.36611C177.69 5.36611 178.574 5.36611 179.485 5.36611C179.485 4.4807 179.485 3.59529 179.485 2.68305C180.369 2.68305 181.253 2.68305 182.163 2.68305C182.163 1.79765 182.163 0.912239 182.163 0Z" fill="#131311"/>
</svg>
