<svg width="665" height="316" viewBox="0 0 665 316" fill="none" xmlns="http://www.w3.org/2000/svg">
<path d="M259.016 1.84996C259.284 1.53974 259.793 1.71152 259.818 2.12048L266.989 119.399C266.996 119.51 266.962 119.62 266.893 119.708L228.036 169.278L224.539 173.74L175.725 236.011L205.613 138.339L206.657 134.927L226.756 69.2428L240.954 22.8443C240.973 22.7837 241.004 22.7276 241.045 22.6796L259.016 1.84996Z" fill="#131311"/>
<path d="M218.955 2.37498C219.162 1.96974 219.769 2.08281 219.816 2.53531L226.756 69.2428L206.657 134.927L186.815 119.572L208.981 21.955C208.989 21.918 209.002 21.8823 209.02 21.8485L218.955 2.37498Z" fill="#131311"/>
<path d="M186.815 119.572L206.657 134.927L205.613 138.339L143.31 156.679L154.826 97.8195L186.815 119.572Z" fill="#131311"/>
<path d="M97.2421 104.458C97.2796 104.463 97.3176 104.463 97.3552 104.459L154.826 97.8195L143.31 156.679C141.494 156.407 138.954 155.384 136.059 153.921L93.46 123.874C93.4251 123.85 93.3869 123.83 93.3465 123.816L4.28464 92.9086C3.76428 92.7281 3.94916 91.9511 4.49509 92.0243L97.2421 104.458Z" fill="#131311"/>
<path d="M172.313 234.732L140.835 185.387C140.78 185.302 140.756 185.201 140.765 185.1L141.591 175.872L143.31 156.679L205.613 138.339L175.725 236.011L172.313 234.732Z" fill="#131311"/>
<path d="M136.059 153.921C138.954 155.384 141.494 156.407 143.31 156.679L141.591 175.872C141.561 176.213 135.331 181.701 132.22 184.403L136.059 153.921Z" fill="#131311"/>
<path d="M140.765 185.1C140.756 185.201 140.78 185.302 140.835 185.387L172.313 234.732C169.043 234.447 161.48 232.514 157.385 227.054C153.29 221.595 138.903 196.345 132.22 184.403C135.331 181.701 141.561 176.213 141.591 175.872L140.765 185.1Z" fill="#131311"/>
<path d="M175.725 236.011L224.539 173.74L219.231 246.248L201.316 242.409L197.478 241.449L175.725 236.011Z" fill="#131311"/>
<path d="M228.036 169.278L227.76 294.444L217.977 263.819C217.96 263.763 217.953 263.705 217.957 263.647L219.231 246.248L224.539 173.74L228.036 169.278Z" fill="#131311"/>
<path d="M227.76 294.444L213.864 314.236C213.756 314.389 213.565 314.461 213.383 314.417L184.284 307.35C184.035 307.29 183.884 307.035 183.951 306.787L196.944 258.617L201.316 242.409L219.231 246.248L217.957 263.647C217.953 263.705 217.96 263.763 217.977 263.819L227.76 294.444Z" fill="#131311"/>
<path d="M197.478 241.449L201.316 242.409L196.944 258.617L193.453 255.824C193.308 255.707 193.248 255.514 193.301 255.335L197.478 241.449Z" fill="#131311"/>
<path d="M175.725 236.011L172.313 234.732M175.725 236.011L224.539 173.74M175.725 236.011L197.478 241.449M175.725 236.011L205.613 138.339M226.756 69.2428L240.954 22.8443C240.973 22.7837 241.004 22.7276 241.045 22.6796L259.016 1.84996C259.284 1.53974 259.793 1.71152 259.818 2.12048L266.989 119.399C266.996 119.51 266.962 119.62 266.893 119.708L228.036 169.278M226.756 69.2428L219.816 2.53531C219.769 2.08281 219.162 1.96974 218.955 2.37498L209.02 21.8485C209.002 21.8823 208.989 21.918 208.981 21.955L186.815 119.572M226.756 69.2428L206.657 134.927M186.815 119.572L206.657 134.927M186.815 119.572L154.826 97.8195M206.657 134.927L205.613 138.339M154.826 97.8195L97.3552 104.459C97.3176 104.463 97.2796 104.463 97.242 104.458L4.49509 92.0243C3.94917 91.9511 3.76427 92.728 4.28463 92.9086L93.3465 123.816C93.3869 123.83 93.4251 123.85 93.46 123.874L136.059 153.921M154.826 97.8195L143.31 156.679M143.31 156.679C141.494 156.407 138.954 155.384 136.059 153.921M143.31 156.679L205.613 138.339M143.31 156.679L141.591 175.872M172.313 234.732L140.835 185.387C140.78 185.302 140.756 185.201 140.765 185.1L141.591 175.872M172.313 234.732C169.043 234.447 161.48 232.514 157.385 227.054C153.29 221.595 138.903 196.345 132.22 184.403M228.036 169.278L227.76 294.444M228.036 169.278L224.539 173.74M227.76 294.444L213.864 314.236C213.756 314.389 213.565 314.461 213.383 314.417L184.284 307.35C184.035 307.29 183.884 307.035 183.951 306.787L196.944 258.617M227.76 294.444L217.977 263.819C217.96 263.763 217.953 263.705 217.957 263.647L219.231 246.248M201.316 242.409L219.231 246.248M201.316 242.409L197.478 241.449M201.316 242.409L196.944 258.617M224.539 173.74L219.231 246.248M197.478 241.449L193.301 255.335C193.248 255.514 193.308 255.707 193.453 255.824L196.944 258.617M132.22 184.403L136.059 153.921M132.22 184.403C135.331 181.701 141.561 176.213 141.591 175.872" stroke="#F8F8F1" stroke-width="2.91417" stroke-linejoin="round"/>
<path d="M334.29 215.295C333.821 215.295 333.293 215.119 332.707 214.767C332.12 214.415 331.71 213.652 331.475 212.48L303.677 100.933C302.856 97.6493 301.917 95.3621 300.862 94.0718C299.923 92.7816 298.281 91.9019 295.935 91.4327L293.296 90.9049C291.654 90.553 290.833 89.7906 290.833 88.6177C290.833 87.4448 291.713 86.8583 293.472 86.8583H323.558C325.2 86.8583 326.021 87.5034 326.021 88.7936C326.021 90.0839 325.024 90.7876 323.03 90.9049L319.687 91.2568C317.693 91.3741 316.403 92.0192 315.817 93.1921C315.347 94.2478 315.406 96.0658 315.993 98.6463L336.402 183.273C336.636 183.977 336.988 184.329 337.457 184.329C338.044 184.329 338.396 183.977 338.513 183.273L358.746 102.341C360.388 95.6553 358.629 91.9606 353.468 91.2568L350.829 90.9049C348.835 90.553 347.838 89.8493 347.838 88.7936C347.838 87.5034 348.659 86.8583 350.301 86.8583H374.932C376.692 86.8583 377.572 87.4448 377.572 88.6177C377.572 89.7906 376.75 90.553 375.108 90.9049L372.469 91.4327C370.241 91.9019 368.481 93.0748 367.191 94.9515C366.018 96.7109 365.021 99.2327 364.2 102.517L336.929 212.48C336.695 213.652 336.284 214.415 335.698 214.767C335.229 215.119 334.759 215.295 334.29 215.295ZM377.643 213.535C375.884 213.535 375.004 212.89 375.004 211.6C375.004 210.544 375.766 209.84 377.291 209.489L381.338 208.785C383.801 208.316 385.384 207.67 386.088 206.849C386.909 206.028 387.32 204.386 387.32 201.923V98.4703C387.32 96.0072 386.909 94.3651 386.088 93.544C385.384 92.723 383.801 92.0779 381.338 91.6087L377.291 90.9049C375.766 90.553 375.004 89.8493 375.004 88.7936C375.004 87.5034 375.884 86.8583 377.643 86.8583H436.759C439.457 86.8583 440.923 88.2072 441.157 90.9049L442.565 120.111C442.799 122.105 442.037 123.102 440.278 123.102C438.87 123.102 438.049 122.34 437.815 120.815L436.759 114.305C435.469 106.329 432.83 100.523 428.842 96.8869C424.854 93.1335 419.341 91.2568 412.303 91.2568C407.611 91.2568 404.327 91.9606 402.451 93.3681C400.691 94.6583 399.811 97.0042 399.811 100.406V142.807C399.811 144.449 400.633 145.27 402.275 145.27H411.072C416.233 145.27 419.399 142.514 420.572 137.001L422.332 128.204C422.801 126.445 423.798 125.682 425.323 125.917C426.613 126.152 427.258 127.149 427.258 128.908V168.494C427.258 170.254 426.613 171.251 425.323 171.485C423.798 171.72 422.801 170.958 422.332 169.198L420.572 160.577C419.751 156.472 418.578 153.774 417.054 152.484C415.646 151.194 413.593 150.549 410.896 150.549H402.275C400.633 150.549 399.811 151.37 399.811 153.012V197.173C399.811 201.395 400.867 204.445 402.978 206.322C405.207 208.198 409.195 209.137 414.942 209.137C420.807 209.137 425.792 207.67 429.897 204.738C434.12 201.689 437.052 196.058 438.694 187.848L440.806 177.467C441.157 175.943 442.037 175.18 443.445 175.18C445.087 175.18 445.79 176.177 445.556 178.171L443.796 209.489C443.562 212.186 442.096 213.535 439.398 213.535H377.643ZM530.557 215.119C520.352 215.119 513.843 208.433 511.028 195.061L506.981 175.532C505.691 169.198 504.225 164.389 502.582 161.105C501.058 157.821 498.888 155.592 496.073 154.419C493.375 153.246 489.622 152.66 484.813 152.66C483.17 152.66 481.88 153.129 480.942 154.067C480.003 154.888 479.534 155.944 479.534 157.234V201.219C479.534 203.683 480.003 205.383 480.942 206.322C481.88 207.143 483.991 207.846 487.276 208.433L493.785 209.489C495.076 209.723 495.721 210.368 495.721 211.424C495.721 212.831 494.841 213.535 493.082 213.535H457.366C455.606 213.535 454.727 212.89 454.727 211.6C454.727 210.544 455.489 209.84 457.014 209.489L461.061 208.785C463.524 208.316 465.107 207.67 465.811 206.849C466.632 206.028 467.043 204.386 467.043 201.923V98.4703C467.043 96.0072 466.632 94.3651 465.811 93.544C465.107 92.723 463.524 92.0779 461.061 91.6087L457.014 90.9049C455.489 90.553 454.727 89.8493 454.727 88.7936C454.727 87.5034 455.606 86.8583 457.366 86.8583H493.082C500.002 86.8583 506.16 88.2072 511.555 90.9049C516.951 93.6027 521.173 97.3561 524.223 102.165C527.273 106.857 528.798 112.311 528.798 118.528C528.798 125.917 526.569 132.603 522.112 138.585C517.655 144.449 512.025 148.613 505.222 151.076C504.401 151.311 503.931 151.722 503.814 152.308C503.814 152.777 504.225 153.188 505.046 153.54C508.799 155.299 511.731 157.762 513.843 160.929C516.071 164.096 517.772 168.319 518.945 173.597L522.816 191.543C524.106 197.642 525.631 201.982 527.39 204.562C529.149 207.143 531.378 208.433 534.076 208.433C535.014 208.433 535.835 208.316 536.539 208.081C537.36 207.729 538.357 207.143 539.53 206.322C540.468 205.735 541.348 205.618 542.169 205.97C542.99 206.204 543.401 206.791 543.401 207.729C543.401 209.723 542.11 211.483 539.53 213.007C536.949 214.415 533.958 215.119 530.557 215.119ZM491.322 148.261C499.298 148.261 505.339 145.622 509.444 140.344C513.549 134.949 515.602 127.794 515.602 118.879C515.602 110.2 513.198 103.455 508.388 98.6463C503.697 93.72 497.187 91.2568 488.859 91.2568C482.643 91.2568 479.534 93.6027 479.534 98.2944V138.585C479.534 145.036 483.464 148.261 491.322 148.261ZM545.508 213.535C543.748 213.535 542.869 212.89 542.869 211.6C542.869 210.544 543.631 209.84 545.156 209.489L549.202 208.785C551.666 208.316 553.249 207.67 553.953 206.849C554.774 206.028 555.184 204.386 555.184 201.923V98.4703C555.184 96.0072 554.774 94.3651 553.953 93.544C553.249 92.723 551.666 92.0779 549.202 91.6087L545.156 90.9049C543.631 90.553 542.869 89.8493 542.869 88.7936C542.869 87.5034 543.748 86.8583 545.508 86.8583H577.353C579.112 86.8583 579.992 87.5034 579.992 88.7936C579.992 89.8493 579.23 90.553 577.705 90.9049L573.658 91.6087C571.195 92.0779 569.553 92.723 568.732 93.544C568.028 94.3651 567.676 96.0072 567.676 98.4703V201.923C567.676 204.386 568.028 206.028 568.732 206.849C569.553 207.67 571.195 208.316 573.658 208.785L577.705 209.489C579.23 209.84 579.992 210.544 579.992 211.6C579.992 212.89 579.112 213.535 577.353 213.535H545.508ZM580.062 213.535C578.303 213.535 577.423 212.949 577.423 211.776C577.423 210.603 578.244 209.84 579.886 209.489L582.525 208.961C584.871 208.492 586.631 207.377 587.803 205.618C588.976 203.741 589.973 201.161 590.794 197.876L618.065 87.9139C618.3 86.741 618.652 85.9786 619.121 85.6267C619.707 85.2748 620.235 85.0989 620.704 85.0989C621.291 85.0989 621.819 85.2748 622.288 85.6267C622.874 85.9786 623.285 86.741 623.519 87.9139L651.318 199.46C652.139 202.744 653.077 205.031 654.133 206.322C655.189 207.612 656.831 208.492 659.059 208.961L661.698 209.489C663.34 209.84 664.161 210.603 664.161 211.776C664.161 212.949 663.282 213.535 661.522 213.535H631.437C629.794 213.535 628.973 212.89 628.973 211.6C628.973 210.31 629.97 209.606 631.964 209.489L635.307 209.137C637.301 208.902 638.533 208.257 639.002 207.201C639.588 206.146 639.588 204.328 639.002 201.747L632.316 174.476C631.613 171.427 629.677 169.902 626.51 169.902H608.037C604.987 169.902 603.052 171.427 602.231 174.476L596.249 198.052C594.489 204.738 596.249 208.433 601.527 209.137L604.166 209.489C606.16 209.84 607.157 210.544 607.157 211.6C607.157 212.89 606.336 213.535 604.694 213.535H580.062ZM607.509 164.624H626.862C628.739 164.624 629.501 163.627 629.149 161.633L617.889 114.481H617.01L605.222 161.633C604.87 163.627 605.632 164.624 607.509 164.624Z" fill="#131311"/>
<path d="M297.065 300.49C296.163 300.49 295.713 300.16 295.713 299.499C295.713 298.958 296.103 298.598 296.884 298.417L298.957 298.057C300.219 297.816 301.031 297.486 301.391 297.065C301.812 296.645 302.022 295.803 302.022 294.542V241.542C302.022 240.28 301.812 239.439 301.391 239.018C301.031 238.598 300.219 238.267 298.957 238.027L296.884 237.666C296.103 237.486 295.713 237.126 295.713 236.585C295.713 235.924 296.163 235.593 297.065 235.593H313.559C314.461 235.593 314.911 235.954 314.911 236.675C314.911 237.216 314.581 237.546 313.92 237.666L311.486 238.027C310.224 238.207 309.383 238.538 308.962 239.018C308.602 239.499 308.422 240.37 308.422 241.632V292.108C308.422 294.271 309.022 295.833 310.224 296.795C311.486 297.756 313.048 298.237 314.911 298.237C316.293 298.237 317.705 297.967 319.148 297.426C320.65 296.825 322.002 295.743 323.204 294.181C324.405 292.559 325.307 290.215 325.908 287.15L327.079 281.111C327.26 280.33 327.71 279.94 328.432 279.94C329.273 279.94 329.633 280.45 329.513 281.472L328.432 298.417C328.311 299.799 327.56 300.49 326.178 300.49H297.065ZM330.963 300.49C330.062 300.49 329.611 300.19 329.611 299.589C329.611 298.988 330.032 298.598 330.873 298.417L332.225 298.147C333.427 297.907 334.328 297.336 334.929 296.434C335.53 295.473 336.041 294.151 336.461 292.468L350.432 236.134C350.552 235.533 350.733 235.143 350.973 234.962C351.273 234.782 351.544 234.692 351.784 234.692C352.085 234.692 352.355 234.782 352.595 234.962C352.896 235.143 353.106 235.533 353.226 236.134L367.468 293.28C367.888 294.962 368.369 296.134 368.91 296.795C369.451 297.456 370.292 297.907 371.434 298.147L372.786 298.417C373.627 298.598 374.047 298.988 374.047 299.589C374.047 300.19 373.597 300.49 372.695 300.49H357.282C356.441 300.49 356.021 300.16 356.021 299.499C356.021 298.838 356.531 298.477 357.553 298.417L359.265 298.237C360.287 298.117 360.918 297.786 361.158 297.246C361.459 296.705 361.459 295.773 361.158 294.451L357.733 280.48C357.373 278.918 356.381 278.137 354.759 278.137H345.294C343.732 278.137 342.741 278.918 342.32 280.48L339.255 292.559C338.354 295.984 339.255 297.877 341.959 298.237L343.312 298.417C344.333 298.598 344.844 298.958 344.844 299.499C344.844 300.16 344.423 300.49 343.582 300.49H330.963ZM345.024 275.433H354.939C355.9 275.433 356.291 274.922 356.111 273.901L350.342 249.744H349.891L343.852 273.901C343.672 274.922 344.063 275.433 345.024 275.433ZM374.612 300.49C373.711 300.49 373.26 300.16 373.26 299.499C373.26 298.958 373.651 298.598 374.432 298.417L376.505 298.057C377.767 297.816 378.578 297.486 378.939 297.065C379.359 296.645 379.57 295.803 379.57 294.542V241.542C379.57 240.28 379.359 239.439 378.939 239.018C378.578 238.598 377.767 238.267 376.505 238.027L374.432 237.666C373.651 237.486 373.26 237.126 373.26 236.585C373.26 235.924 373.711 235.593 374.612 235.593H392.91C395.914 235.593 398.588 236.224 400.932 237.486C403.275 238.748 405.108 240.461 406.43 242.624C407.812 244.787 408.503 247.251 408.503 250.015C408.503 252.719 407.692 255.243 406.069 257.586C404.507 259.87 402.224 261.793 399.219 263.355C398.859 263.535 398.678 263.775 398.678 264.076C398.678 264.376 398.889 264.587 399.309 264.707C403.395 266.089 406.55 268.312 408.773 271.377C410.997 274.381 412.108 277.957 412.108 282.103C412.108 285.648 411.297 288.833 409.675 291.657C408.052 294.421 405.799 296.585 402.915 298.147C400.09 299.709 396.876 300.49 393.27 300.49H374.612ZM390.746 263.445C393.931 263.445 396.575 262.213 398.678 259.749C400.841 257.226 401.923 254.101 401.923 250.375C401.923 246.65 400.902 243.645 398.859 241.362C396.815 239.018 394.111 237.847 390.746 237.847C387.562 237.847 385.969 239.048 385.969 241.452V258.488C385.969 260.23 386.33 261.492 387.051 262.273C387.832 263.054 389.064 263.445 390.746 263.445ZM392.098 298.237C396.004 298.237 399.189 296.765 401.653 293.82C404.116 290.816 405.348 286.82 405.348 281.833C405.348 276.845 404.086 272.909 401.563 270.025C399.099 267.141 395.764 265.698 391.558 265.698C387.832 265.698 385.969 267.171 385.969 270.115V292.018C385.969 296.164 388.012 298.237 392.098 298.237ZM431.175 301.302C429.974 301.302 428.622 301.181 427.119 300.941C425.677 300.701 424.295 300.4 422.973 300.04C421.711 299.679 420.72 299.289 419.999 298.868C419.578 298.628 419.248 298.387 419.007 298.147C418.827 297.846 418.737 297.366 418.737 296.705L418.286 282.554C418.286 281.352 418.677 280.751 419.458 280.751C420.119 280.751 420.57 281.292 420.81 282.373L421.621 285.798C423.664 294.391 427.48 298.688 433.068 298.688C436.073 298.688 438.446 297.696 440.189 295.713C441.992 293.67 442.893 290.816 442.893 287.15C442.893 283.605 441.962 280.3 440.099 277.236C438.296 274.171 435.382 271.136 431.356 268.132C426.909 264.947 423.664 261.883 421.621 258.938C419.578 255.934 418.557 252.749 418.557 249.384C418.557 244.937 420.089 241.392 423.153 238.748C426.278 236.044 430.244 234.692 435.051 234.692C436.854 234.692 438.596 234.902 440.279 235.323C441.962 235.744 443.344 236.344 444.425 237.126C444.786 237.366 445.056 237.636 445.236 237.937C445.477 238.237 445.597 238.628 445.597 239.109L445.867 252.719C445.867 253.74 445.477 254.251 444.696 254.251C444.155 254.251 443.764 253.831 443.524 252.989L442.893 250.736C441.571 246.109 440.189 242.744 438.747 240.641C437.365 238.478 435.352 237.396 432.708 237.396C430.124 237.396 428.051 238.237 426.488 239.92C424.986 241.602 424.235 243.976 424.235 247.04C424.235 249.624 425.076 252.088 426.759 254.432C428.441 256.775 431.386 259.629 435.592 262.994C440.099 266.66 443.374 270.205 445.417 273.63C447.52 276.995 448.571 280.601 448.571 284.446C448.571 287.811 447.82 290.756 446.318 293.28C444.816 295.803 442.743 297.786 440.099 299.229C437.515 300.611 434.54 301.302 431.175 301.302Z" fill="#131311"/>
</svg>
